<svg id="圖層_1" data-name="圖層 1" xmlns="http://www.w3.org/2000/svg" viewBox="0 0 60.19 54.12"><defs><style>.cls-1{fill:#fff;}</style></defs><title>雙劍</title><rect class="cls-1" x="7.49" y="34.62" width="6.06" height="24.24" transform="translate(-29.78 17.8) rotate(-45)"/><path class="cls-1" d="M52.24,13.6,17,48.88,8.38,40.31,43.67,5c1.57-1.57,8.6-2.25,9.71-1.14S53.73,12.11,52.24,13.6Z" transform="translate(0.19 -3.33)"/><rect class="cls-1" x="0.18" y="48" width="12.12" height="6.06" transform="translate(-34.06 16.02) rotate(-45)"/><rect class="cls-1" x="37.16" y="43.71" width="24.24" height="6.06" transform="translate(-18.42 45.21) rotate(-45)"/><path class="cls-1" d="M7.57,13.6,42.86,48.88l8.57-8.57L16.14,5C14.56,3.45,7.53,2.77,6.43,3.88S6.08,12.11,7.57,13.6Z" transform="translate(0.19 -3.33)"/><rect class="cls-1" x="50.54" y="44.96" width="6.06" height="12.12" transform="translate(-20.2 49.49) rotate(-45)"/></svg>