<svg xmlns="http://www.w3.org/2000/svg" viewBox="0 0 48.91 52.25">
  <defs>
    <style>
      .cls-1 {
        fill: none;
        stroke: #fff;
        stroke-miterlimit: 10;
        stroke-width: 1.5px;
      }

      .cls-2 {
        fill: #ea4335;
      }

      .cls-3 {
        fill: #4285f4;
      }

      .cls-4 {
        fill: #77b55a;
      }

      .cls-5 {
        fill: #fbbc04;
      }

      .cls-6 {
        fill: #fff;
      }
    </style>
  </defs>
  <title>資產 1mdpi</title>
  <g id="圖層_2" data-name="圖層 2">
    <g id="圖層_1-2" data-name="圖層 1">
      <rect class="cls-1" x="0.75" y="3" width="35.33" height="48.5" rx="2.5" ry="2.5"/>
      <rect class="cls-2" x="3.75" width="1.93" height="5" rx="0.93" ry="0.93"/>
      <rect class="cls-2" x="7.62" width="1.93" height="5" rx="0.93" ry="0.93"/>
      <rect class="cls-3" x="11.48" width="1.93" height="5" rx="0.93" ry="0.93"/>
      <rect class="cls-3" x="15.35" width="1.93" height="5" rx="0.93" ry="0.93"/>
      <rect class="cls-4" x="19.22" width="1.93" height="5" rx="0.93" ry="0.93"/>
      <rect class="cls-4" x="23.08" width="1.93" height="5" rx="0.93" ry="0.93"/>
      <rect class="cls-5" x="26.95" width="1.93" height="5" rx="0.93" ry="0.93"/>
      <rect class="cls-5" x="30.82" width="1.93" height="5" rx="0.93" ry="0.93"/>
      <path class="cls-2" d="M5.57,11H23.82c.47,0,.86.25.86.56v.88c0,.31-.39.56-.86.56H5.57c-.47,0-.86-.25-.86-.56v-.88C4.71,11.25,5.1,11,5.57,11Z"/>
      <path class="cls-2" d="M5.57,14H30c.47,0,.86.25.86.56v.88c0,.31-.39.56-.86.56H5.57c-.47,0-.86-.25-.86-.56v-.88C4.71,14.25,5.1,14,5.57,14Z"/>
      <path class="cls-3" d="M5.57,20H23.82c.47,0,.86.25.86.56v.88c0,.31-.39.56-.86.56H5.57c-.47,0-.86-.25-.86-.56v-.88C4.71,20.25,5.1,20,5.57,20Z"/>
      <path class="cls-3" d="M5.57,23H30c.47,0,.86.25.86.56v.88c0,.31-.39.56-.86.56H5.57c-.47,0-.86-.25-.86-.56v-.88C4.71,23.25,5.1,23,5.57,23Z"/>
      <path class="cls-4" d="M5.57,30H23.82c.47,0,.86.25.86.56v.88c0,.31-.39.56-.86.56H5.57c-.47,0-.86-.25-.86-.56v-.88C4.71,30.25,5.1,30,5.57,30Z"/>
      <path class="cls-4" d="M5.57,33H30c.47,0,.86.25.86.56v.88c0,.31-.39.56-.86.56H5.57c-.47,0-.86-.25-.86-.56v-.88C4.71,33.25,5.1,33,5.57,33Z"/>
      <path class="cls-5" d="M5.57,41H23.82c.47,0,.86.25.86.56v.88c0,.31-.39.56-.86.56H5.57c-.47,0-.86-.25-.86-.56v-.88C4.71,41.25,5.1,41,5.57,41Z"/>
      <path class="cls-5" d="M5.57,44H30c.47,0,.86.25.86.56v.88c0,.31-.39.56-.86.56H5.57c-.47,0-.86-.25-.86-.56v-.88C4.71,44.25,5.1,44,5.57,44Z"/>
      <path class="cls-6" d="M42.78,47.54,38,46.34l6.13-24.1a7.8,7.8,0,0,1,2.48.2,7.68,7.68,0,0,1,2.27,1Z"/>
      <rect class="cls-2" x="43.62" y="24.47" width="4.9" height="0.42" transform="translate(7.51 -10.6) rotate(14.27)"/>
      <polygon class="cls-3" points="42.78 47.55 39.59 50.14 38.03 46.34 42.78 47.55"/>
      <polygon class="cls-6" points="41.87 47.87 39.72 49.62 38.67 47.06 41.87 47.87"/>
    </g>
  </g>
</svg>
