<?xml version="1.0" encoding="utf-8"?>
<!-- Generator: Adobe Illustrator 22.0.0, SVG Export Plug-In . SVG Version: 6.00 Build 0)  -->
<svg version="1.1" id="圖層_1" xmlns="http://www.w3.org/2000/svg" xmlns:xlink="http://www.w3.org/1999/xlink" x="0px" y="0px"
	 viewBox="0 0 1200 630" style="enable-background:new 0 0 1200 630;" xml:space="preserve">
<style type="text/css">
	.st0{fill:#666666;}
	.st1{fill:#EA4335;}
	.st2{font-family:'MicrosoftJhengHeiBold';}
	.st3{font-size:61.56px;}
	.st4{fill:#4285F4;}
	.st5{font-family:'Arial-BoldMT';}
	.st6{fill:#0F9D58;}
	.st7{fill:#FBBC04;}
	.st8{letter-spacing:-1;}
	.st9{fill:#77B55A;}
	.st10{clip-path:url(#SVGID_2_);}
	.st11{fill:#FFFFFF;}
	.st12{font-size:19.28px;}
</style>
<title>GDSCxSITCON</title>
<rect class="st0" width="1200" height="630"/>
<g>
	<text transform="matrix(1 0 0 1 384.4711 444.27)" class="st1 st2 st3">學生社群大亂鬥</text>
	<g>
		<text transform="matrix(1 0 0 1 255.0479 516.3599)" class="st4 st5 st3">Student</text>
		<text transform="matrix(1 0 0 1 492.0179 516.3599)" class="st6 st5 st3">Adventure</text>
		<text transform="matrix(1 0 0 1 802.2479 516.3599)" class="st7 st5 st3 st8">T</text>
		<text transform="matrix(1 0 0 1 838.7379 516.3599)" class="st7 st5 st3">ime</text>
	</g>
	<g>
		<path class="st9" d="M476.8,110.9c-1-8.3-6.2-12.4-15.9-12.4c-8.5,0-14,3.4-14,8.7c0,4.4,3.3,7,11.5,8.8l10.3,2.1
			c7.6,1.6,11.3,3.2,14.4,5.8c3.4,2.9,5.3,7.1,5.2,11.5c0,11.4-9.7,18.4-25.2,18.4c-16.5,0-26.5-7.9-27.8-22.4h9.5
			c1,9.6,7.6,14.9,18.6,14.9c9.2,0,15.7-4.2,15.7-10.3c0-4.5-3.5-7.5-10.1-9l-14.3-3.2c-11.6-2.6-16.9-7.5-16.9-15.6
			c0-10.6,9.3-17.2,23.9-17.2s22.4,6.4,24.4,19.9H476.8L476.8,110.9z"/>
		<path class="st9" d="M509.4,152.5h-9.1V92.3h9.1V152.5z"/>
		<path class="st9" d="M547.2,152.5h-9.1V99.8h-19.8v-7.5h48.8v7.5h-19.9V152.5z"/>
		<path class="st9" d="M617.9,111.1c-1.9-7.9-8.3-12.7-17.1-12.7c-12.2,0-20.2,9.4-20.2,23.6c0,14.5,8,24.3,19.9,24.3
			c9.9,0,16.8-6.3,18.2-16.8h9.2c-0.8,5.9-2.2,9.8-5.4,14c-5.2,6.9-12.6,10.3-22.1,10.3s-17-3.4-22.3-10.3c-4.7-6.1-7.1-13.7-7-21.4
			c0-18.3,12.3-31.2,29.8-31.2c13.5,0,23.2,7.2,26,19.4L617.9,111.1z"/>
		<path class="st9" d="M751.4,152.5l-26-38c-3.2-4.7-5.1-7.7-6.6-10.4c0.2,2.7,0.3,8.4,0.3,11.4v37h-8.6V92.3h9.3l25,36.6
			c2.4,3.4,5.6,8.8,7.5,12.5c-0.2-3.3-0.3-7-0.3-11.3V92.7h8.6v59.8H751.4z"/>
		<g>
			<path class="st9" d="M679.5,65.4c3.4-2.5,7.6-3.4,11.8-2.6c0,0-1.1,7.6-6.4,11.7s-13,3.1-13,3.1c1.2-1.9,2.3-3.8,3.3-5.8
				C676.1,70,677.5,66.9,679.5,65.4z"/>
			<path class="st9" d="M666.6,71.6c-1.6-1.1-3.6-1.6-5.5-1.2c0.3,2.1,1.4,4.1,3,5.5c2.5,1.9,6.1,1.5,6.1,1.5
				c-0.6-0.9-1.1-1.8-1.5-2.7C668.2,73.5,667.5,72.5,666.6,71.6z"/>
			<path class="st9" d="M667.2,89.8c0.8,0,1.5,0,2.2,0.1c-0.7-3.9-0.5-7.9,1.5-11.4c-3.5,2.8-5.2,7.1-6.1,11.5
				C665.6,89.8,666.4,89.7,667.2,89.8z"/>
			<path class="st9" d="M667.2,91c-17.6,0.1-31.7,14.3-31.7,31.9s14.3,31.7,31.9,31.7c17.5-0.1,31.7-14.3,31.7-31.8
				c0-17.5-14.2-31.8-31.8-31.8C667.3,91,667.2,91,667.2,91z M680.2,135.8l-13-8.9l-13,8.9l9-13l-9-13l13,8.9l13-8.9l-9,13
				L680.2,135.8z"/>
		</g>
	</g>
	<g>
		<defs>
			<rect id="SVGID_1_" x="577.4" y="180.6" width="43.9" height="39.8"/>
		</defs>
		<clipPath id="SVGID_2_">
			<use xlink:href="#SVGID_1_"  style="overflow:visible;"/>
		</clipPath>
		<g class="st10">
			<g>
				<path class="st11" d="M580.6,204.7l-3.1,3.1l12.5,12.6l3.1-3.2L580.6,204.7z"/>
				<path class="st11" d="M615.7,188.2L590,214.1l-6.3-6.3l25.8-26c1.1-1.1,6.3-1.6,7.1-0.8S616.8,187.1,615.7,188.2z"/>
				<path class="st11" d="M583.7,211l-6.3,6.3l3.1,3.1l6.3-6.3L583.7,211z"/>
				<path class="st11" d="M618.2,204.7l-12.5,12.6l3.1,3.1l12.5-12.6L618.2,204.7z"/>
				<path class="st11" d="M583.1,188.2l25.8,25.9l6.3-6.3l-25.7-26c-1.2-1.1-6.3-1.6-7.1-0.8S582,187.1,583.1,188.2z"/>
				<path class="st11" d="M615.1,211l-3.2,3.1l6.3,6.3l3.1-3.1L615.1,211z"/>
			</g>
		</g>
	</g>
	
		<image style="overflow:visible;enable-background:new    ;" width="2397" height="806" id="圖層_1-2" xlink:href="5C3B04D9.png"  transform="matrix(0.1297 0 0 0.1297 444.5816 246.1)">
	</image>
	<text transform="matrix(1 0 0 1 525.0093 558.4602)" class="st11 st2 st12">@COSCUP 2023</text>
	<text transform="matrix(1 0 0 1 428.5435 578.46)" class="st11 st2 st12">2023 07/29 ~ 07/30 國立臺灣科技大學</text>
</g>
</svg>
